<svg width="368" height="298" viewBox="0 0 368 298" fill="none" xmlns="http://www.w3.org/2000/svg">
  <g clip-path="url(#clip0_7356_1194)">
    <path
      d="M326.716 146.418C326.716 71.1215 265.673 10.0753 190.376 10.0753C115.08 10.0753 54.0334 71.1215 54.0334 146.418C54.0334 192.025 76.4485 232.372 110.843 257.122L98.2552 291.439C97.4395 293.651 99.0779 295.999 101.434 295.999H279.316C281.675 295.999 283.31 293.654 282.501 291.439L269.91 257.122C304.297 232.372 326.716 192.025 326.716 146.418Z"
      fill="#F9F5EB" stroke="transparent" stroke-width="2" stroke-linecap="round" stroke-linejoin="round" />
    <mask id="mask0_7356_1194" style="mask-type:luminance" maskUnits="userSpaceOnUse" x="2" y="-11" width="358"
      height="307">
      <path
        d="M326.717 146.419C326.717 144.457 359.631 96.0511 359.55 94.1067C356.579 23.8308 280.463 -7.49048 210.321 -10.9995C208.025 -11.1156 192.698 10.0759 190.374 10.0759C115.073 10.0759 54.0342 71.122 54.0342 146.419C54.0342 192.026 -23.6044 270.969 10.7899 295.719L98.256 291.44C97.4402 293.651 99.0787 296 101.435 296H279.317C281.676 296 283.311 293.655 282.502 291.44L269.911 257.123C304.298 232.373 326.717 192.026 326.717 146.419Z"
        fill="white" />
    </mask>
    <g mask="url(#mask0_7356_1194)">
      <path
        d="M172.23 256.641C172.553 260.34 177.272 310.708 193.21 312.582C195.612 312.863 199.068 312.139 203.65 307.698C207.507 306.637 209.409 304.959 210.281 303.163C215.734 291.897 184.944 266.595 172.23 256.641Z"
        fill="black" stroke="black" stroke-width="1.2" stroke-linecap="round" stroke-linejoin="round" />
      <path
        d="M289.19 219.174C283.518 222.387 269.971 250.962 279.978 263.399C281.282 265.023 281.992 266.342 287.822 265.969C290.923 267.527 284.598 276.004 286.349 275.266C297.322 270.638 293.064 238.428 289.193 219.174H289.19Z"
        fill="black" stroke="black" stroke-width="1.2" stroke-linecap="round" stroke-linejoin="round" />
      <path
        d="M201.648 230.764C201.173 236.01 197.516 279.328 210.462 283.305C212.358 283.888 218.033 298.378 221.893 295.998C226.443 295.263 226.042 279.131 226.763 277.264C231.081 266.079 218.324 257.18 201.648 230.764Z"
        fill="black" stroke="black" stroke-width="1.2" stroke-linecap="round" stroke-linejoin="round" />
      <path
        d="M293.063 204.863C299.406 226.705 310.165 240.238 318.98 239.282C320.829 239.082 323.593 238.136 326.719 234.293C327.682 232.485 328.037 230.843 328.052 229.391C328.146 219.919 313.889 210.369 293.067 204.863H293.063Z"
        fill="black" stroke="black" stroke-width="1.2" stroke-linecap="round" stroke-linejoin="round" />
      <path
        d="M237.725 311.797C253.445 279.425 278.167 266.475 278.167 266.475L297.825 296L259.331 305.518L237.725 311.797Z"
        fill="black" stroke="black" stroke-width="1.2" stroke-linecap="round" stroke-linejoin="round" />
      <path d="M254.721 196.816H220.727V307.699H254.721V196.816Z" fill="#F2BE22" stroke="black" stroke-width="1.2"
        stroke-linecap="round" stroke-linejoin="round" />
      <path
        d="M220.727 307.699V233.629C225.421 232.385 231.304 230.356 237.647 226.945C245.192 222.888 250.825 218.25 254.724 214.509V196.816H220.731V307.699H220.727Z"
        fill="black" />
      <path d="M266.951 68.9838L210.251 1.67896L164.552 59.4376L175.931 197.862L257.581 207.686L266.951 68.9838Z"
        fill="#F2BE22" stroke="black" stroke-width="1.2" stroke-linecap="round" stroke-linejoin="round" />
      <path
        d="M251.781 95.2422L180.964 88.3789C177.532 88.0448 174.624 90.8788 174.874 94.321L180.517 173.141L252.291 181.33L256.806 101.097C256.974 98.1149 254.756 95.5306 251.781 95.2422Z"
        fill="white" stroke="white" stroke-width="1.2" stroke-linecap="round" stroke-linejoin="round" />
      <path
        d="M251.781 95.2422L180.964 88.3789C177.532 88.0448 174.624 90.8788 174.874 94.321L175.848 107.921L255.969 116.012L256.809 101.1C256.978 98.1184 254.759 95.5341 251.785 95.2458L251.781 95.2422Z"
        fill="black" stroke="black" stroke-width="1.2" stroke-miterlimit="10" />
      <path
        d="M188.163 148.845L192.804 147.843C193.279 151.19 195.016 153.286 197.709 153.581C200.093 153.841 202.009 152.519 201.914 149.633C201.826 146.929 200.065 145.167 197.966 144.942L195.406 144.664L195.177 139.327L197.22 139.545C199.196 139.756 200.944 138.554 200.852 135.79C200.768 133.223 199.108 131.363 196.925 131.131C194.706 130.899 193.036 132.32 192.695 135.055L187.938 133.234C188.528 128.153 191.939 125.133 196.925 125.653C202.108 126.191 205.627 130.301 205.764 135.649C205.838 138.504 204.924 140.755 202.431 142.386C205.261 144.021 206.728 146.992 206.809 150.417C206.949 156.285 202.923 159.309 197.916 158.757C193.511 158.268 189.313 155.202 188.163 148.845Z"
        fill="black" />
      <path
        d="M210.598 143.996C210.412 133.398 214.441 127.477 220.735 128.135C227.008 128.789 231.03 135.571 230.854 146.176C230.682 156.538 226.681 161.945 220.749 161.288C214.796 160.627 210.781 154.354 210.598 143.999V143.996ZM215.556 144.53C215.619 151.292 217.068 155.831 220.746 156.235C224.321 156.629 225.844 152.406 225.9 145.645C225.956 138.897 224.452 134.077 220.735 133.687C216.955 133.289 215.493 137.786 215.556 144.534V144.53Z"
        fill="black" />
      <path
        d="M239.683 140.086L234.067 139.492L234.148 135.856C237.808 135.976 240.157 133.384 240.917 130.691L244.953 131.113L243.677 163.419L238.972 162.898L239.686 140.09L239.683 140.086Z"
        fill="black" />
      <path d="M188.101 95.7832L183.115 102.211" stroke="#F2BE22" stroke-width="1.2" stroke-linecap="round"
        stroke-linejoin="round" />
      <path d="M188.454 102.745L182.698 95.2526" stroke="#F2BE22" stroke-width="1.2" stroke-linecap="round"
        stroke-linejoin="round" />
      <path
        d="M200.273 100.478C200.347 102.757 198.979 104.451 197.217 104.276C195.456 104.1 193.954 102.124 193.856 99.8453C193.757 97.5669 195.122 95.8194 196.904 95.9952C198.687 96.171 200.195 98.1857 200.273 100.482V100.478Z"
        fill="white" />
      <path d="M328.545 91.5675L309.71 188.077L257.58 207.686L266.951 68.9838L328.545 91.5675Z" fill="black"
        stroke="black" stroke-width="1.2" stroke-linecap="round" stroke-linejoin="round" />
      <path d="M281.999 172.648L278.437 203.33" stroke="#F2BE22" stroke-width="1.2" stroke-linecap="round"
        stroke-linejoin="round" />
      <path d="M289.19 110.72L282.622 167.312" stroke="#F2BE22" stroke-width="1.2" stroke-linecap="round"
        stroke-linejoin="round" />
      <path d="M300.545 147.053L293.063 198.816" stroke="#F2BE22" stroke-width="1.2" stroke-linecap="round"
        stroke-linejoin="round" />
      <path d="M306.12 108.502L302.312 134.841" stroke="#F2BE22" stroke-width="1.2" stroke-linecap="round"
        stroke-linejoin="round" />
      <path d="M159.179 81.6491L167.533 95.7029L225.974 24.7238L221.093 14.5482L217.155 9.87537L159.179 81.6491Z"
        fill="black" />
      <path d="M210.271 1.67896L140.361 86.5853L148.107 102.735L218.017 17.8283L210.271 1.67896Z" fill="#F2BE22"
        stroke="black" stroke-width="1.2" stroke-linecap="round" stroke-linejoin="round" />
      <path d="M350.006 96.8311L290.106 15.5745L210.249 1.67896L276.393 116.528L343.075 107.914L350.006 96.8311Z"
        fill="#F2BE22" stroke="black" stroke-width="1.2" stroke-linecap="round" stroke-linejoin="round" />
      <path d="M350.006 96.8311L290.106 15.5745L210.249 1.67896L285.018 102.728L350.006 96.8311Z" stroke="black"
        stroke-width="1.2" stroke-linecap="round" stroke-linejoin="round" />
      <path d="M285.018 102.728L210.249 1.67896L210.442 27.1108L276.393 116.528L285.018 102.728Z" fill="#F2BE22"
        stroke="black" stroke-width="1.2" stroke-linecap="round" stroke-linejoin="round" />
      <path
        d="M219.598 189.666C219.598 186.678 217.914 184.255 215.832 184.255C215.565 184.255 215.308 184.297 215.059 184.371L86.866 228.516L85.6038 233.624L93.2337 260.976L216.912 194.853C218.466 194.185 219.598 192.117 219.598 189.666Z"
        fill="#F2BE22" />
      <path
        d="M215.839 184.255C215.572 184.255 215.315 184.297 215.065 184.371L86.8724 228.516L85.6101 233.624L87.326 238.427L218.947 186.607C218.268 185.187 217.133 184.252 215.842 184.252L215.839 184.255Z"
        fill="white" />
      <path
        d="M219.598 189.666C219.598 186.678 217.914 184.255 215.832 184.255C215.565 184.255 215.308 184.297 215.059 184.371L86.866 228.516L85.6038 233.624L93.2337 260.976L216.912 194.853C218.466 194.185 219.598 192.117 219.598 189.666Z"
        stroke="black" stroke-width="1.2" stroke-linecap="round" stroke-linejoin="round" />
      <path
        d="M90.1853 261.667C96.1527 261.667 100.99 254.077 100.99 244.716C100.99 235.354 96.1527 227.765 90.1853 227.765C84.2179 227.765 79.3804 235.354 79.3804 244.716C79.3804 254.077 84.2179 261.667 90.1853 261.667Z"
        fill="black" stroke="black" stroke-width="1.2" stroke-linecap="round" stroke-linejoin="round" />
      <path d="M163.552 218.622L218.371 191.426" stroke="black" stroke-width="1.2" stroke-linecap="round"
        stroke-linejoin="round" />
      <path d="M130.166 228.383L95.8706 245.819" stroke="black" stroke-width="1.2" stroke-linecap="round"
        stroke-linejoin="round" />
      <path
        d="M153.932 102.728C151.583 108.301 150.834 113.435 151.33 118.477C152.273 128.083 157.427 136.096 152.74 157.273C145.835 188.482 94.644 209.304 70.6573 233.547C58.9452 245.382 42.395 237.257 54.0332 216.54L108.888 125.597C110.385 102.732 114.134 81.7511 127.628 77.0642C138.036 73.4497 150.898 78.6007 159.948 88.3508C157.944 93.1432 155.94 97.9357 153.932 102.728Z"
        fill="#F2BE22" />
      <path
        d="M159.948 88.3542C150.901 78.6042 138.036 73.4531 127.628 77.0676C127.185 77.2223 126.756 77.3946 126.338 77.581C139.927 77.5493 146.211 82.2679 147.184 88.3261C147.227 88.5968 147.251 88.8746 147.262 89.1489C147.733 100.154 142.41 101.125 143.081 130.691C143.45 146.964 138.95 166.735 116.556 194.695C119.889 193.401 123.426 192.254 127.073 191.193C139.759 180.989 149.927 169.998 152.74 157.28C157.423 136.103 152.272 128.089 151.33 118.484C150.834 113.441 151.583 108.304 153.932 102.735C155.936 97.9426 157.94 93.1502 159.948 88.3578V88.3542Z"
        fill="white" />
      <path
        d="M138.355 91.6427C137.658 89.4733 138.928 87.3847 140.58 87.0366C141.79 86.7799 143.193 87.4656 143.98 88.7525"
        stroke="black" stroke-width="1.2" stroke-linecap="round" stroke-linejoin="round" />
      <path
        d="M115.249 198.917L118.554 209.413C118.98 210.766 120.362 211.575 121.75 211.283L153.891 203.33C157.115 202.219 159.576 205.415 160.888 208.39C161.56 209.916 163.856 209.406 163.775 207.739C163.585 203.907 163.339 202.082 162.266 201.227C165.065 200.478 165.818 201.66 167.329 204.55C168.114 206.044 170.353 205.359 170.163 203.682C170.111 203.217 170.04 202.778 169.949 202.391C169.39 200.004 168.166 197.785 166.088 196.481C160.765 193.14 158.574 198.425 149.837 199.993C144.317 201.343 130.087 204.831 123.871 205.542C124.827 199.796 125.787 194.048 126.743 188.302"
        fill="black" />
      <path
        d="M115.249 198.917L118.554 209.413C118.98 210.766 120.362 211.575 121.75 211.283L153.891 203.33C157.115 202.219 159.576 205.415 160.888 208.39C161.56 209.916 163.856 209.406 163.775 207.739C163.585 203.907 163.339 202.082 162.266 201.227C165.065 200.478 165.818 201.66 167.329 204.55C168.114 206.044 170.353 205.359 170.163 203.682C170.111 203.217 170.04 202.778 169.949 202.391C169.39 200.004 168.166 197.785 166.088 196.481C160.765 193.14 158.574 198.425 149.837 199.993C144.317 201.343 130.087 204.831 123.871 205.542C124.827 199.796 125.787 194.048 126.743 188.302"
        stroke="black" stroke-width="1.2" stroke-linecap="round" stroke-linejoin="round" />
      <path
        d="M160.976 207.982C161.32 208.524 161.728 209.315 161.971 210.327C162.22 211.358 162.22 212.296 162.132 213.059C162.097 213.355 162.505 213.478 162.639 213.214C162.952 212.595 163.247 211.822 163.416 210.908C163.694 209.385 163.49 208.126 163.317 207.406"
        fill="black" />
      <path
        d="M160.976 207.982C161.32 208.524 161.728 209.315 161.971 210.327C162.22 211.358 162.22 212.296 162.132 213.059C162.097 213.355 162.505 213.478 162.639 213.214C162.952 212.595 163.247 211.822 163.416 210.908C163.694 209.385 163.49 208.126 163.317 207.406"
        stroke="black" stroke-width="1.2" stroke-linecap="round" stroke-linejoin="round" />
      <path
        d="M167.599 204.429C167.943 204.97 168.351 205.761 168.594 206.774C168.844 207.804 168.844 208.743 168.756 209.506C168.72 209.801 169.128 209.924 169.262 209.661C169.575 209.042 169.87 208.268 170.039 207.354C170.317 205.832 170.113 204.573 169.941 203.852"
        fill="black" />
      <path
        d="M167.599 204.429C167.943 204.97 168.351 205.761 168.594 206.774C168.844 207.804 168.844 208.743 168.756 209.506C168.72 209.801 169.128 209.924 169.262 209.661C169.575 209.042 169.87 208.268 170.039 207.354C170.317 205.832 170.113 204.573 169.941 203.852"
        stroke="black" stroke-width="1.2" stroke-linecap="round" stroke-linejoin="round" />
      <path
        d="M171.387 201.295C171.71 201.759 172.097 202.438 172.326 203.31C172.547 204.154 172.561 204.924 172.487 205.56C172.456 205.852 172.85 205.982 172.987 205.725C173.268 205.205 173.535 204.562 173.686 203.806C173.947 202.498 173.757 201.418 173.592 200.799"
        fill="black" />
      <path
        d="M171.387 201.295C171.71 201.759 172.097 202.438 172.326 203.31C172.547 204.154 172.561 204.924 172.487 205.56C172.456 205.852 172.85 205.982 172.987 205.725C173.268 205.205 173.535 204.562 173.686 203.806C173.947 202.498 173.757 201.418 173.592 200.799"
        stroke="black" stroke-width="1.2" stroke-linecap="round" stroke-linejoin="round" />
      <path
        d="M161.305 196.199C169.427 191.1 174.244 200.513 173.741 201.388C172.004 204.409 168.355 196.093 163.552 198.495"
        fill="black" />
      <path
        d="M161.305 196.199C169.427 191.1 174.244 200.513 173.741 201.388C172.004 204.409 168.355 196.093 163.552 198.495"
        stroke="black" stroke-width="1.2" stroke-linecap="round" stroke-linejoin="round" />
      <path
        d="M98.5542 204.864L102.176 216.358C102.643 217.838 104.155 218.724 105.678 218.408L132.47 212.81C136 211.593 138.339 214.361 139.773 217.62C140.508 219.294 143.022 218.735 142.934 216.906C142.727 212.708 142.456 210.711 141.282 209.772C144.348 208.953 145.17 210.247 146.83 213.411C147.688 215.046 150.142 214.294 149.931 212.462C149.875 211.952 149.798 211.474 149.696 211.048C149.084 208.432 147.741 206.003 145.466 204.575C139.636 200.919 137.235 206.706 127.667 208.422C121.62 209.899 114.798 211.337 107.991 212.114C109.039 205.82 110.09 199.526 111.138 193.232"
        fill="black" />
      <path
        d="M98.5542 204.864L102.176 216.358C102.643 217.838 104.155 218.724 105.678 218.408L132.47 212.81C136 211.593 138.339 214.361 139.773 217.62C140.508 219.294 143.022 218.735 142.934 216.906C142.727 212.708 142.456 210.711 141.282 209.772C144.348 208.953 145.17 210.247 146.83 213.411C147.688 215.046 150.142 214.294 149.931 212.462C149.875 211.952 149.798 211.474 149.696 211.048C149.084 208.432 147.741 206.003 145.466 204.575C139.636 200.919 137.235 206.706 127.667 208.422C121.62 209.899 114.798 211.337 107.991 212.114C109.039 205.82 110.09 199.526 111.138 193.232"
        stroke="black" stroke-width="1.2" stroke-linecap="round" stroke-linejoin="round" />
      <path
        d="M139.874 217.177C140.25 217.771 140.697 218.636 140.964 219.747C141.235 220.876 141.235 221.906 141.14 222.739C141.101 223.066 141.548 223.2 141.695 222.908C142.036 222.233 142.363 221.386 142.546 220.38C142.849 218.713 142.627 217.335 142.437 216.544"
        fill="black" />
      <path
        d="M139.874 217.177C140.25 217.771 140.697 218.636 140.964 219.747C141.235 220.876 141.235 221.906 141.14 222.739C141.101 223.066 141.548 223.2 141.695 222.908C142.036 222.233 142.363 221.386 142.546 220.38C142.849 218.713 142.627 217.335 142.437 216.544"
        stroke="black" stroke-width="1.2" stroke-linecap="round" stroke-linejoin="round" />
      <path
        d="M147.122 213.281C147.498 213.875 147.945 214.74 148.212 215.851C148.483 216.98 148.483 218.01 148.388 218.843C148.349 219.17 148.795 219.304 148.943 219.012C149.284 218.337 149.611 217.49 149.794 216.484C150.096 214.817 149.875 213.439 149.685 212.648"
        fill="black" />
      <path
        d="M147.122 213.281C147.498 213.875 147.945 214.74 148.212 215.851C148.483 216.98 148.483 218.01 148.388 218.843C148.349 219.17 148.795 219.304 148.943 219.012C149.284 218.337 149.611 217.49 149.794 216.484C150.096 214.817 149.875 213.439 149.685 212.648"
        stroke="black" stroke-width="1.2" stroke-linecap="round" stroke-linejoin="round" />
      <path
        d="M151.273 209.848C151.628 210.358 152.05 211.1 152.303 212.056C152.546 212.977 152.56 213.825 152.482 214.521C152.447 214.841 152.876 214.985 153.031 214.7C153.34 214.131 153.628 213.427 153.794 212.598C154.079 211.166 153.868 209.982 153.692 209.303"
        fill="black" />
      <path
        d="M151.273 209.848C151.628 210.358 152.05 211.1 152.303 212.056C152.546 212.977 152.56 213.825 152.482 214.521C152.447 214.841 152.876 214.985 153.031 214.7C153.34 214.131 153.628 213.427 153.794 212.598C154.079 211.166 153.868 209.982 153.692 209.303"
        stroke="black" stroke-width="1.2" stroke-linecap="round" stroke-linejoin="round" />
      <path
        d="M140.23 204.268C149.126 198.685 154.403 208.994 153.851 209.954C151.949 213.259 147.951 204.156 142.691 206.786"
        fill="black" />
      <path
        d="M140.23 204.268C149.126 198.685 154.403 208.994 153.851 209.954C151.949 213.259 147.951 204.156 142.691 206.786"
        stroke="black" stroke-width="1.2" stroke-linecap="round" stroke-linejoin="round" />
      <path
        d="M152.343 204.747C150.297 202.514 146.204 201.509 141.88 203.393C138.167 203.362 135.051 207.103 127.671 208.425C121.623 209.902 115.252 211.016 108.442 211.797C109.489 205.503 110.091 199.533 111.142 193.239"
        stroke="black" stroke-width="1.2" stroke-linecap="round" stroke-linejoin="round" />
      <path
        d="M137.949 181.5C132.732 187.92 128.881 188.321 125.291 185.533C123.379 184.046 120.991 182.523 122.693 167.313C123.896 156.546 106.607 156.128 93.6011 150.945L54.0311 216.545C42.3929 237.262 32.6744 253.063 21.6832 274.131C13.2164 290.358 21.9152 289.975 23.3955 288.368C39.9246 265.707 58.9431 245.387 70.6551 233.552C87.8804 216.144 118.347 200.044 137.942 181.504L137.949 181.5Z"
        fill="black" />
      <path
        d="M34.9422 228.987C28.5008 243.505 25.8075 249.04 28.1738 250.562C31.6301 252.784 42.3365 244.585 50.1141 231.916"
        fill="black" />
      <path
        d="M34.9422 228.987C28.5008 243.505 25.8075 249.04 28.1738 250.562C31.6301 252.784 42.3365 244.585 50.1141 231.916"
        stroke="black" stroke-width="1.2" stroke-linecap="round" stroke-linejoin="round" />
      <path
        d="M109.685 116.008C107.994 125.6 101.943 130.878 95.8705 137.073C65.1154 168.436 37.4931 221.564 30.7422 238.431C44.1384 234.163 131.207 179.667 133.728 152.723"
        fill="#F2BE22" />
      <path
        d="M109.685 116.008C107.994 125.6 101.943 130.878 95.8705 137.073C65.1154 168.436 37.4931 221.564 30.7422 238.431C44.1384 234.163 131.207 179.667 133.728 152.723"
        stroke="black" stroke-width="1.2" stroke-linecap="round" stroke-linejoin="round" />
      <path
        d="M30.7422 238.429C43.9802 234.214 134.794 178.783 134.794 148.46C124.249 162.254 120.631 154.891 120.631 154.891C120.631 154.891 112.688 167.169 102.277 166.673C99.8964 166.561 97.8571 163.614 97.6321 160.984C89.6752 172.45 75.6566 177.534 73.0055 174.824C69.6441 171.381 78.3218 157.799 79.3766 156.171C55.6888 186.708 36.2589 224.657 30.7457 238.429H30.7422Z"
        fill="black" stroke="black" stroke-width="1.2" stroke-linecap="round" stroke-linejoin="round" />
      <path
        d="M54.8562 190.004C58.0453 194.456 87.7245 182.649 104.718 170.258C110.171 166.281 117.755 157.586 119.812 153.74"
        stroke="#F2BE22" stroke-width="1.2" stroke-linecap="round" stroke-linejoin="round" />
      <path
        d="M116.556 177.713C98.5533 190.849 45.5519 222.251 40.7208 216.179C34.6275 227.293 33.0312 232.085 29.9897 238.428C39.339 238.024 89.8053 204.389 116.556 177.713Z"
        fill="#F2BE22" />
      <path d="M26.4968 250.912C28.5994 253.626 36.7884 248.771 43.8135 240.568" stroke="#F2BE22" stroke-width="1.2"
        stroke-linecap="round" stroke-linejoin="round" />
      <path d="M46.7918 229.72C37.0136 253.651 54.0349 239.361 58.2753 229.478" stroke="#F2BE22" stroke-width="1.2"
        stroke-linecap="round" stroke-linejoin="round" />
      <path
        d="M60.8488 220.04C46.57 253.478 95.4435 209.295 116.561 178.153C111.315 181.693 105.953 185.248 100.468 188.803C94.6454 192.579 88.879 196.232 83.1794 199.766"
        stroke="#F2BE22" stroke-width="1.2" stroke-linecap="round" stroke-linejoin="round" />
      <path
        d="M157.035 85.4895L180.6 88.2812C181.426 88.3797 181.613 89.4978 180.86 89.8564L154.834 101.034C153.604 99.5222 152.777 94.1074 152.777 94.1074C152.777 94.1074 155.819 87.4022 157.035 85.486V85.4895Z"
        fill="#8c8c8c" stroke="black" stroke-width="1.2" stroke-linecap="round" stroke-linejoin="round" />
      <path d="M157.52 84.2684L180.596 88.2838C181.422 88.3822 181.608 89.5004 180.856 89.859L157.97 101.037"
        stroke="transparent" stroke-width="1.2" stroke-linecap="round" stroke-linejoin="round" />
      <path
        d="M191.454 265.622C193.019 270.974 194.58 276.325 196.138 281.677C199.052 291.711 201.953 301.753 204.833 311.799C210.909 309.007 214.21 306.212 220.286 303.42C220.166 301.792 220.623 275.267 202.059 267.619C199.488 266.561 195.969 265.601 191.454 265.626V265.622Z"
        fill="black" stroke="black" stroke-width="1.2" stroke-linecap="round" stroke-linejoin="round" />
      <path
        d="M189.449 264.931C192.269 264.857 197.825 265.096 203.897 268.085C211.006 271.587 214.828 276.893 216.351 279.294"
        stroke="#F9F5EB" stroke-width="1.2" stroke-linecap="round" stroke-linejoin="round" />
      <path d="M230.863 254.518V223.066" stroke="black" stroke-width="1.2" stroke-linecap="round"
        stroke-linejoin="round" />
      <path d="M239.508 262.87V250.754" stroke="black" stroke-width="1.2" stroke-linecap="round"
        stroke-linejoin="round" />
      <path d="M239.508 301.301V272.107" stroke="black" stroke-width="1.2" stroke-linecap="round"
        stroke-linejoin="round" />
      <path
        d="M89.6732 236.188C85.6051 243.449 87.7921 250.439 90.7913 251.75C92.0606 252.306 93.889 251.82 94.9755 248.649"
        stroke="#F2BE22" stroke-width="1.2" stroke-linecap="round" stroke-linejoin="round" />
      <path d="M241.033 7.03406L311.376 100.337L305.504 112.766" stroke="black" stroke-width="1.2"
        stroke-linecap="round" stroke-linejoin="round" />
      <path d="M269.893 12.0551L332.423 98.4275L324.807 110.72" stroke="black" stroke-width="1.2" stroke-linecap="round"
        stroke-linejoin="round" />
      <path d="M152.777 94.1105L181.328 89.0509" stroke="black" stroke-width="1.2" stroke-linecap="round"
        stroke-linejoin="round" />
      <path d="M48.8748 200.341C49.3389 205.51 57.6509 201.618 62.6824 196.242" stroke="#F2BE22" stroke-width="1.2"
        stroke-linecap="round" stroke-linejoin="round" />
      <path
        d="M66.7353 189.347C61.4577 195.408 62.5195 197.993 63.4548 198.805C64.6643 199.853 70.712 198.14 77.3046 190.148"
        stroke="#F2BE22" stroke-width="1.2" stroke-linecap="round" stroke-linejoin="round" />
      <path
        d="M78.9211 184.908C77.0365 188.013 77.3811 190.133 78.2355 190.879C79.7404 192.187 85.6087 190.411 92.8167 183.221"
        stroke="#F2BE22" stroke-width="1.2" stroke-linecap="round" stroke-linejoin="round" />
      <path
        d="M93.6326 177.338C92.6341 180.868 92.5602 183.428 94.0827 184.219C96.5123 185.484 103.358 181.093 107.648 168.017"
        stroke="#F2BE22" stroke-width="1.2" stroke-linecap="round" stroke-linejoin="round" />
      <path
        d="M157.808 86.1988C148.948 77.8657 137.243 73.7308 127.63 77.0676C127.19 77.2223 126.758 77.3945 126.339 77.5809C115.724 82.3135 111.579 97.8265 109.691 116.012C107.999 125.6 101.948 130.878 95.8759 137.073C86.4247 146.714 77.2653 158.409 68.9216 170.476M126.22 191.484C165.628 165.381 152.281 128.089 151.339 118.483C150.843 113.441 151.592 108.304 153.94 102.735C154.303 101.87 154.665 101.005 155.027 100.137"
        stroke="black" stroke-width="1.2" stroke-linecap="round" stroke-linejoin="round" />
    </g>
    <path
      d="M106.071 270.121L98.2512 291.439C97.4355 293.65 99.0739 295.999 101.43 295.999H279.312C281.671 295.999 283.306 293.654 282.497 291.439L269.906 257.122C290.001 242.66 306.006 222.875 315.84 199.824C322.837 183.425 326.712 165.377 326.712 146.418"
      stroke="transparent" stroke-width="2" stroke-linecap="round" stroke-linejoin="round" />
    <path
      d="M42.613 213.823C40.296 217.895 37.9648 222.315 35.6864 227.076C33.0563 232.575 30.8271 237.852 28.9285 242.824"
      stroke="black" stroke-width="1.2" stroke-linecap="round" stroke-linejoin="round" />
  </g>
  <defs>
    <clipPath id="clip0_7356_1194">
      <rect width="368" height="297.99" fill="transparent" />
    </clipPath>
  </defs>
</svg>